<svg xmlns="http://www.w3.org/2000/svg" viewBox="0 0 1000 1000" shape-rendering="geometricPrecision"><rect width="1000" height="1000" fill="#aee1ff"/><ellipse cx="860" cy="130" rx="80" ry="80" fill="#ffd93d"/><ellipse cx="60" cy="130" rx="49.5" ry="49.5" fill="#ffffff"/><ellipse cx="114" cy="103" rx="63" ry="63" fill="#ffffff"/><ellipse cx="181.5" cy="130" rx="52.2" ry="52.2" fill="#ffffff"/><rect x="55.5" y="130" width="130.5" height="52.2" rx="18" fill="#ffffff"/><ellipse cx="520" cy="200" rx="38.5" ry="38.5" fill="#ffffff"/><ellipse cx="562" cy="179" rx="49" ry="49" fill="#ffffff"/><ellipse cx="614.5" cy="200" rx="40.599999999999994" ry="40.599999999999994" fill="#ffffff"/><rect x="516.5" y="200" width="101.5" height="40.599999999999994" rx="14" fill="#ffffff"/><rect x="20" y="300" width="190" height="560" rx="0" fill="#ee6c4d"/><rect x="40" y="324" width="36" height="46" rx="0" fill="#7ac7ff"/><rect x="92" y="324" width="36" height="46" rx="0" fill="#ffe9a8"/><rect x="144" y="324" width="36" height="46" rx="0" fill="#ffe9a8"/><rect x="40" y="394" width="36" height="46" rx="0" fill="#ffe9a8"/><rect x="92" y="394" width="36" height="46" rx="0" fill="#ffe9a8"/><rect x="144" y="394" width="36" height="46" rx="0" fill="#7ac7ff"/><rect x="40" y="464" width="36" height="46" rx="0" fill="#ffe9a8"/><rect x="92" y="464" width="36" height="46" rx="0" fill="#7ac7ff"/><rect x="144" y="464" width="36" height="46" rx="0" fill="#ffe9a8"/><rect x="40" y="534" width="36" height="46" rx="0" fill="#7ac7ff"/><rect x="92" y="534" width="36" height="46" rx="0" fill="#ffe9a8"/><rect x="144" y="534" width="36" height="46" rx="0" fill="#ffe9a8"/><rect x="40" y="604" width="36" height="46" rx="0" fill="#ffe9a8"/><rect x="92" y="604" width="36" height="46" rx="0" fill="#ffe9a8"/><rect x="144" y="604" width="36" height="46" rx="0" fill="#7ac7ff"/><rect x="93" y="790" width="44" height="70" rx="0" fill="#2b2d42"/><rect x="220" y="200" width="170" height="660" rx="0" fill="#3d5a80"/><rect x="240" y="224" width="36" height="46" rx="0" fill="#ffe9a8"/><rect x="292" y="224" width="36" height="46" rx="0" fill="#ffe9a8"/><rect x="240" y="294" width="36" height="46" rx="0" fill="#ffe9a8"/><rect x="292" y="294" width="36" height="46" rx="0" fill="#7ac7ff"/><rect x="240" y="364" width="36" height="46" rx="0" fill="#7ac7ff"/><rect x="292" y="364" width="36" height="46" rx="0" fill="#ffe9a8"/><rect x="240" y="434" width="36" height="46" rx="0" fill="#ffe9a8"/><rect x="292" y="434" width="36" height="46" rx="0" fill="#ffe9a8"/><rect x="240" y="504" width="36" height="46" rx="0" fill="#ffe9a8"/><rect x="292" y="504" width="36" height="46" rx="0" fill="#7ac7ff"/><rect x="240" y="574" width="36" height="46" rx="0" fill="#7ac7ff"/><rect x="292" y="574" width="36" height="46" rx="0" fill="#ffe9a8"/><rect x="240" y="644" width="36" height="46" rx="0" fill="#ffe9a8"/><rect x="292" y="644" width="36" height="46" rx="0" fill="#ffe9a8"/><rect x="283" y="790" width="44" height="70" rx="0" fill="#2b2d42"/><rect x="400" y="340" width="180" height="520" rx="0" fill="#98c1d9"/><rect x="420" y="364" width="36" height="46" rx="0" fill="#ffe9a8"/><rect x="472" y="364" width="36" height="46" rx="0" fill="#7ac7ff"/><rect x="524" y="364" width="36" height="46" rx="0" fill="#ffe9a8"/><rect x="420" y="434" width="36" height="46" rx="0" fill="#7ac7ff"/><rect x="472" y="434" width="36" height="46" rx="0" fill="#ffe9a8"/><rect x="524" y="434" width="36" height="46" rx="0" fill="#ffe9a8"/><rect x="420" y="504" width="36" height="46" rx="0" fill="#ffe9a8"/><rect x="472" y="504" width="36" height="46" rx="0" fill="#ffe9a8"/><rect x="524" y="504" width="36" height="46" rx="0" fill="#7ac7ff"/><rect x="420" y="574" width="36" height="46" rx="0" fill="#ffe9a8"/><rect x="472" y="574" width="36" height="46" rx="0" fill="#7ac7ff"/><rect x="524" y="574" width="36" height="46" rx="0" fill="#ffe9a8"/><rect x="420" y="644" width="36" height="46" rx="0" fill="#7ac7ff"/><rect x="472" y="644" width="36" height="46" rx="0" fill="#ffe9a8"/><rect x="524" y="644" width="36" height="46" rx="0" fill="#ffe9a8"/><rect x="468" y="790" width="44" height="70" rx="0" fill="#2b2d42"/><rect x="590" y="250" width="200" height="610" rx="0" fill="#f4a261"/><rect x="610" y="274" width="36" height="46" rx="0" fill="#7ac7ff"/><rect x="662" y="274" width="36" height="46" rx="0" fill="#ffe9a8"/><rect x="714" y="274" width="36" height="46" rx="0" fill="#ffe9a8"/><rect x="610" y="344" width="36" height="46" rx="0" fill="#ffe9a8"/><rect x="662" y="344" width="36" height="46" rx="0" fill="#ffe9a8"/><rect x="714" y="344" width="36" height="46" rx="0" fill="#7ac7ff"/><rect x="610" y="414" width="36" height="46" rx="0" fill="#ffe9a8"/><rect x="662" y="414" width="36" height="46" rx="0" fill="#7ac7ff"/><rect x="714" y="414" width="36" height="46" rx="0" fill="#ffe9a8"/><rect x="610" y="484" width="36" height="46" rx="0" fill="#7ac7ff"/><rect x="662" y="484" width="36" height="46" rx="0" fill="#ffe9a8"/><rect x="714" y="484" width="36" height="46" rx="0" fill="#ffe9a8"/><rect x="610" y="554" width="36" height="46" rx="0" fill="#ffe9a8"/><rect x="662" y="554" width="36" height="46" rx="0" fill="#ffe9a8"/><rect x="714" y="554" width="36" height="46" rx="0" fill="#7ac7ff"/><rect x="610" y="624" width="36" height="46" rx="0" fill="#ffe9a8"/><rect x="662" y="624" width="36" height="46" rx="0" fill="#7ac7ff"/><rect x="714" y="624" width="36" height="46" rx="0" fill="#ffe9a8"/><rect x="668" y="790" width="44" height="70" rx="0" fill="#2b2d42"/><rect x="800" y="360" width="180" height="500" rx="0" fill="#7b2cbf"/><rect x="820" y="384" width="36" height="46" rx="0" fill="#ffe9a8"/><rect x="872" y="384" width="36" height="46" rx="0" fill="#ffe9a8"/><rect x="924" y="384" width="36" height="46" rx="0" fill="#7ac7ff"/><rect x="820" y="454" width="36" height="46" rx="0" fill="#ffe9a8"/><rect x="872" y="454" width="36" height="46" rx="0" fill="#7ac7ff"/><rect x="924" y="454" width="36" height="46" rx="0" fill="#ffe9a8"/><rect x="820" y="524" width="36" height="46" rx="0" fill="#7ac7ff"/><rect x="872" y="524" width="36" height="46" rx="0" fill="#ffe9a8"/><rect x="924" y="524" width="36" height="46" rx="0" fill="#ffe9a8"/><rect x="820" y="594" width="36" height="46" rx="0" fill="#ffe9a8"/><rect x="872" y="594" width="36" height="46" rx="0" fill="#ffe9a8"/><rect x="924" y="594" width="36" height="46" rx="0" fill="#7ac7ff"/><rect x="820" y="664" width="36" height="46" rx="0" fill="#ffe9a8"/><rect x="872" y="664" width="36" height="46" rx="0" fill="#7ac7ff"/><rect x="924" y="664" width="36" height="46" rx="0" fill="#ffe9a8"/><rect x="868" y="790" width="44" height="70" rx="0" fill="#2b2d42"/><rect x="0" y="860" width="1000" height="140" rx="0" fill="#4a5568"/><rect x="40" y="925" width="90" height="16" rx="0" fill="#ffd93d"/><rect x="210" y="925" width="90" height="16" rx="0" fill="#ffd93d"/><rect x="380" y="925" width="90" height="16" rx="0" fill="#ffd93d"/><rect x="550" y="925" width="90" height="16" rx="0" fill="#ffd93d"/><rect x="720" y="925" width="90" height="16" rx="0" fill="#ffd93d"/><rect x="890" y="925" width="90" height="16" rx="0" fill="#ffd93d"/><rect x="120" y="760" width="400" height="130" rx="30" fill="#ee4b4b"/><rect x="150" y="785" width="50" height="46" rx="8" fill="#bde7ff"/><rect x="220" y="785" width="50" height="46" rx="8" fill="#bde7ff"/><rect x="290" y="785" width="50" height="46" rx="8" fill="#bde7ff"/><rect x="360" y="785" width="50" height="46" rx="8" fill="#bde7ff"/><rect x="430" y="785" width="50" height="46" rx="8" fill="#bde7ff"/><ellipse cx="210" cy="890" rx="38" ry="38" fill="#2b2d42"/><ellipse cx="210" cy="890" rx="14" ry="14" fill="#e3e8ee"/><ellipse cx="430" cy="890" rx="38" ry="38" fill="#2b2d42"/><ellipse cx="430" cy="890" rx="14" ry="14" fill="#e3e8ee"/><rect x="620" y="810" width="240" height="80" rx="26" fill="#3a86ff"/><rect x="660" y="760" width="140" height="70" rx="26" fill="#3a86ff"/><rect x="678" y="775" width="50" height="40" rx="6" fill="#bde7ff"/><rect x="738" y="775" width="50" height="40" rx="6" fill="#bde7ff"/><ellipse cx="680" cy="892" rx="32" ry="32" fill="#2b2d42"/><ellipse cx="800" cy="892" rx="32" ry="32" fill="#2b2d42"/><ellipse cx="680" cy="892" rx="12" ry="12" fill="#e3e8ee"/><ellipse cx="800" cy="892" rx="12" ry="12" fill="#e3e8ee"/></svg>