<svg xmlns="http://www.w3.org/2000/svg" viewBox="0 0 1000 1000" shape-rendering="geometricPrecision"><rect width="1000" height="1000" fill="#fff1d6"/><polygon points="254.6,207 258.1,225.1 276.2,229.3 260,238.3 261.6,256.7 248,244.2 231,251.4 238.8,234.6 226.7,220.6 245,222.8" fill="#ffd93d"/><polygon points="975.2,158.3 975.2,182.1 996.9,191.8 974.3,199.1 971.8,222.8 957.8,203.6 934.6,208.5 948.5,189.2 936.6,168.7 959.2,176" fill="#ff6f91"/><polygon points="392.2,315.1 397.1,337.9 419.9,342.8 399.7,354.5 402.1,377.7 384.8,362.1 363.4,371.6 372.9,350.2 357.3,332.9 380.5,335.3" fill="#4cc9f0"/><polygon points="242.2,562.6 243.3,581.3 260.7,588 243.3,594.7 242.2,613.4 230.5,598.9 212.4,603.7 222.6,588 212.4,572.3 230.5,577.1" fill="#8ac926"/><polygon points="103.6,202.4 111.2,223.2 133.2,224.8 115.8,238.4 121.1,259.9 102.8,247.5 84,259.2 90,238 73.1,223.7 95.2,222.9" fill="#ffd93d"/><polygon points="879.1,564.7 877.5,588.1 898.1,599.1 875.5,604.8 871.4,627.8 859,608 835.8,611.2 850.8,593.3 840.6,572.2 862.3,581" fill="#ff6f91"/><polygon points="85.9,479.2 88.9,500.4 109.5,506.3 90.2,515.7 90.9,537.1 76.1,521.8 55.9,529.1 65.9,510.1 52.8,493.3 73.9,496.9" fill="#4cc9f0"/><polygon points="103.5,364.7 110,382.7 129.1,384 114.1,395.8 118.6,414.3 102.8,403.7 86.6,413.8 91.8,395.4 77.2,383.1 96.3,382.4" fill="#8ac926"/><polygon points="743.3,432.1 745.6,454.4 766.9,461.3 746.5,470.5 746.4,492.8 731.5,476.2 710.2,483.1 721.3,463.7 708.2,445.6 730.1,450.2" fill="#ffd93d"/><polygon points="441.9,566.1 443.9,584.8 461.8,590.6 444.7,598.3 444.6,617.1 432,603.1 414.1,608.9 423.5,592.6 412.5,577.4 430.9,581.3" fill="#ff6f91"/><polygon points="87.2,264.3 95.2,287.3 119.4,289.4 100,304.1 105.4,327.8 85.5,313.9 64.6,326.4 71.7,303.1 53.3,287.1 77.7,286.7" fill="#4cc9f0"/><polygon points="384.3,389.8 390.9,411.4 413.3,414.2 394.8,427.2 399.1,449.4 381,435.8 361.3,446.7 368.6,425.3 352.1,409.9 374.7,410.3" fill="#8ac926"/><polygon points="627.2,344.2 634.9,366.6 658.5,368.7 639.6,383 644.9,406 625.5,392.5 605.2,404.6 612.1,382 594.3,366.4 617.9,366" fill="#ffd93d"/><polygon points="72.3,533.7 71.5,557.5 92.9,568 70,574.6 66.7,598.2 53.3,578.4 29.8,582.5 44.5,563.7 33.3,542.7 55.7,550.8" fill="#ff6f91"/><polygon points="577.3,582.6 575.9,603 593.9,612.5 574.1,617.5 570.6,637.6 559.7,620.3 539.6,623.1 552.6,607.5 543.7,589.2 562.6,596.8" fill="#4cc9f0"/><polygon points="327.1,416.8 334,436.8 355.1,438.7 338.2,451.4 342.9,472.1 325.5,460 307.4,470.9 313.5,450.6 297.6,436.6 318.7,436.2" fill="#8ac926"/><ellipse cx="252" cy="437" rx="15.500292484136297" ry="15.500292484136297" fill="#ffd93d"/><ellipse cx="409" cy="274" rx="15.538642457872628" ry="15.538642457872628" fill="#ff6f91"/><ellipse cx="706" cy="230" rx="14.228675924008712" ry="14.228675924008712" fill="#4cc9f0"/><ellipse cx="383" cy="400" rx="14.183896087575704" ry="14.183896087575704" fill="#8ac926"/><ellipse cx="625" cy="364" rx="14.426657434413212" ry="14.426657434413212" fill="#ffd93d"/><ellipse cx="163" cy="336" rx="14.757502133585515" ry="14.757502133585515" fill="#ff6f91"/><ellipse cx="298" cy="285" rx="14.230391911370678" ry="14.230391911370678" fill="#4cc9f0"/><ellipse cx="215" cy="208" rx="14.487759766634554" ry="14.487759766634554" fill="#8ac926"/><ellipse cx="838" cy="426" rx="13.917042866395786" ry="13.917042866395786" fill="#ffd93d"/><ellipse cx="562" cy="217" rx="14.168672932311893" ry="14.168672932311893" fill="#ff6f91"/><ellipse cx="212" cy="380" rx="13.70414193882607" ry="13.70414193882607" fill="#4cc9f0"/><ellipse cx="772" cy="303" rx="14.452209948841483" ry="14.452209948841483" fill="#8ac926"/><ellipse cx="650" cy="393" rx="14.156580854440108" ry="14.156580854440108" fill="#ffd93d"/><ellipse cx="379" cy="348" rx="12.538222406618297" ry="12.538222406618297" fill="#ff6f91"/><ellipse cx="779" cy="539" rx="14.642861806927247" ry="14.642861806927247" fill="#4cc9f0"/><ellipse cx="567" cy="277" rx="15.340661064814778" ry="15.340661064814778" fill="#8ac926"/><polygon points="50,60 110,60 80,170" fill="#e63946"/><polygon points="150,74 210,74 180,184" fill="#4cc9f0"/><polygon points="250,60 310,60 280,170" fill="#06d6a0"/><polygon points="350,74 410,74 380,184" fill="#8ac926"/><polygon points="450,60 510,60 480,170" fill="#f15bb5"/><polygon points="550,74 610,74 580,184" fill="#ff9f1c"/><polygon points="650,60 710,60 680,170" fill="#3a86ff"/><polygon points="750,74 810,74 780,184" fill="#f4a261"/><polygon points="850,60 910,60 880,170" fill="#2a9d8f"/><polygon points="950,74 1010,74 980,184" fill="#ff6f91"/><rect x="0" y="880" width="1000" height="120" rx="0" fill="#c9a27a"/><ellipse cx="90" cy="330" rx="60" ry="78" fill="#ee4b4b"/><polygon points="76,404 104,404 90,430" fill="#ee4b4b"/><ellipse cx="68" cy="304" rx="12" ry="22" fill="#ffffff" transform="rotate(25 68 304)"/><ellipse cx="190" cy="260" rx="60" ry="78" fill="#3a86ff"/><polygon points="176,334 204,334 190,360" fill="#3a86ff"/><ellipse cx="168" cy="234" rx="12" ry="22" fill="#ffffff" transform="rotate(25 168 234)"/><ellipse cx="910" cy="330" rx="60" ry="78" fill="#8ac926"/><polygon points="896,404 924,404 910,430" fill="#8ac926"/><ellipse cx="888" cy="304" rx="12" ry="22" fill="#ffffff" transform="rotate(25 888 304)"/><ellipse cx="810" cy="260" rx="60" ry="78" fill="#f15bb5"/><polygon points="796,334 824,334 810,360" fill="#f15bb5"/><ellipse cx="788" cy="234" rx="12" ry="22" fill="#ffffff" transform="rotate(25 788 234)"/><ellipse cx="500" cy="880" rx="380" ry="54" fill="#ffffff"/><rect x="240" y="650" width="520" height="230" rx="24" fill="#ff6f91"/><rect opacity="1" x="260" y="650" width="30" height="230" rx="10" fill="#ffffff"/><rect opacity="1" x="390" y="650" width="30" height="230" rx="10" fill="#ffffff"/><rect opacity="1" x="520" y="650" width="30" height="230" rx="10" fill="#ffffff"/><rect opacity="1" x="650" y="650" width="30" height="230" rx="10" fill="#ffffff"/><ellipse cx="280" cy="840" rx="20" ry="20" fill="#ff9f1c"/><ellipse cx="368" cy="840" rx="20" ry="20" fill="#8ac926"/><ellipse cx="456" cy="840" rx="20" ry="20" fill="#4cc9f0"/><ellipse cx="544" cy="840" rx="20" ry="20" fill="#7b2cbf"/><ellipse cx="632" cy="840" rx="20" ry="20" fill="#ff6f91"/><ellipse cx="720" cy="840" rx="20" ry="20" fill="#f4a261"/><rect x="300" y="480" width="400" height="190" rx="24" fill="#ffd93d"/><ellipse cx="330" cy="560" rx="14" ry="14" fill="#e63946"/><ellipse cx="378" cy="600" rx="14" ry="14" fill="#8ac926"/><ellipse cx="426" cy="560" rx="14" ry="14" fill="#3a86ff"/><ellipse cx="474" cy="600" rx="14" ry="14" fill="#ff6f91"/><ellipse cx="522" cy="560" rx="14" ry="14" fill="#e63946"/><ellipse cx="570" cy="600" rx="14" ry="14" fill="#8ac926"/><ellipse cx="618" cy="560" rx="14" ry="14" fill="#3a86ff"/><ellipse cx="666" cy="600" rx="14" ry="14" fill="#ff6f91"/><path d="M300 500Q330 560 360 500Q390 570 420 500Q450 560 480 500Q510 570 540 500Q570 560 600 500Q630 570 660 500Q690 560 700 500L700 480L300 480Z" fill="#ffffff"/><rect x="360" y="330" width="280" height="170" rx="24" fill="#7b2cbf"/><rect x="380" y="400" width="30" height="100" rx="12" fill="#f15bb5"/><rect x="432" y="400" width="30" height="100" rx="12" fill="#f15bb5"/><rect x="484" y="400" width="30" height="100" rx="12" fill="#f15bb5"/><rect x="536" y="400" width="30" height="100" rx="12" fill="#f15bb5"/><rect x="588" y="400" width="30" height="100" rx="12" fill="#f15bb5"/><rect x="380" y="260" width="18" height="70" rx="6" fill="#ee4b4b"/><ellipse cx="389" cy="236" rx="14" ry="24" fill="#ffd93d"/><rect x="432" y="260" width="18" height="70" rx="6" fill="#3a86ff"/><ellipse cx="441" cy="236" rx="14" ry="24" fill="#ffd93d"/><rect x="484" y="260" width="18" height="70" rx="6" fill="#8ac926"/><ellipse cx="493" cy="236" rx="14" ry="24" fill="#ffd93d"/><rect x="536" y="260" width="18" height="70" rx="6" fill="#ff9f1c"/><ellipse cx="545" cy="236" rx="14" ry="24" fill="#ffd93d"/><rect x="588" y="260" width="18" height="70" rx="6" fill="#f15bb5"/><ellipse cx="597" cy="236" rx="14" ry="24" fill="#ffd93d"/><rect x="40" y="780" width="160" height="130" rx="8" fill="#3a86ff"/><rect x="100" y="780" width="40" height="130" rx="0" fill="#ffd93d"/><rect x="40" y="830" width="160" height="30" rx="0" fill="#ffd93d"/><rect x="800" y="760" width="160" height="150" rx="8" fill="#8ac926"/><rect x="860" y="760" width="40" height="150" rx="0" fill="#e63946"/><rect x="800" y="820" width="160" height="30" rx="0" fill="#e63946"/><ellipse cx="880" cy="740" rx="30" ry="30" fill="#e63946"/></svg>