<svg xmlns="http://www.w3.org/2000/svg" viewBox="0 0 1000 1000" shape-rendering="geometricPrecision"><rect width="1000" height="1000" fill="#ffd6a5"/><ellipse cx="255" cy="602" rx="29.33877611928619" ry="58.67755223857238" fill="#7bc96f" transform="rotate(30 255 602)"/><ellipse cx="309" cy="947" rx="27.4445666084066" ry="54.8891332168132" fill="#7bc96f" transform="rotate(-18 309 947)"/><ellipse cx="703" cy="817" rx="29.358469757018607" ry="58.716939514037215" fill="#7bc96f" transform="rotate(-26 703 817)"/><ellipse cx="775" cy="949" rx="29.996913158800453" ry="59.993826317600906" fill="#7bc96f" transform="rotate(-20 775 949)"/><ellipse cx="573" cy="615" rx="33.00026407954283" ry="66.00052815908566" fill="#7bc96f" transform="rotate(4 573 615)"/><ellipse cx="190" cy="190" rx="90" ry="90" fill="#fff"/><ellipse cx="820" cy="230" rx="70" ry="70" fill="#fff"/><ellipse cx="500" cy="400" rx="230" ry="220" fill="#4cbb5a"/><ellipse cx="290" cy="330" rx="35" ry="35" fill="#4cbb5a"/><ellipse cx="380" cy="205" rx="45" ry="45" fill="#4cbb5a"/><ellipse cx="405" cy="360" rx="62" ry="62" fill="#ffffff"/><ellipse cx="595" cy="360" rx="62" ry="62" fill="#ffffff"/><ellipse cx="415" cy="365" rx="30" ry="30" fill="#2b2d42"/><ellipse cx="585" cy="365" rx="30" ry="30" fill="#2b2d42"/><ellipse cx="420" cy="215" rx="40" ry="40" fill="#2f8f46"/><ellipse cx="560" cy="205" rx="34" ry="34" fill="#2f8f46"/><ellipse cx="500" cy="480" rx="24" ry="24" fill="#2f8f46"/><path d="M200 570L300 500L380 590L470 500L560 590L650 500L720 590L800 530L800 930Q500 1010 200 930Z" fill="#fff3d6"/><ellipse cx="330" cy="740" rx="56" ry="56" fill="#ffb3c6"/><ellipse cx="560" cy="840" rx="46" ry="46" fill="#ffb3c6"/><ellipse cx="660" cy="700" rx="40" ry="40" fill="#ffb3c6"/></svg>