<svg xmlns="http://www.w3.org/2000/svg" viewBox="0 0 1000 1000" shape-rendering="geometricPrecision"><rect width="1000" height="1000" fill="#9bdcff"/><path d="M263.9805468067061 100Q321.99027340335306 7.184437445364878 380 100Q438.00972659664694 7.184437445364878 496.0194531932939 100L496.0194531932939 141.7670031495858Q438.00972659664694 67.51455310587771 380 141.7670031495858Q321.99027340335306 67.51455310587771 263.9805468067061 141.7670031495858Z" fill="#ffffff"/><path d="M561.4561384135741 136Q618.728069206787 44.36491073085925 676 136Q733.271930793213 44.36491073085925 790.5438615864259 136L790.5438615864259 177.23579017111334Q733.271930793213 103.92771875580074 676 177.23579017111334Q618.728069206787 103.92771875580074 561.4561384135741 177.23579017111334Z" fill="#ffffff"/><rect x="40" y="250" width="200" height="560" rx="0" fill="#ffd6a5"/><rect x="285" y="340" width="200" height="560" rx="0" fill="#c9b6e4"/><rect x="530" y="250" width="200" height="560" rx="0" fill="#ffd6a5"/><rect x="775" y="340" width="200" height="560" rx="0" fill="#c9b6e4"/><rect x="75" y="290" width="55" height="70" rx="0" fill="#ffffff"/><rect x="145" y="290" width="55" height="70" rx="0" fill="#ffd93d"/><rect x="75" y="420" width="55" height="70" rx="0" fill="#ffffff"/><rect x="145" y="420" width="55" height="70" rx="0" fill="#ffd93d"/><rect x="75" y="550" width="55" height="70" rx="0" fill="#ffffff"/><rect x="145" y="550" width="55" height="70" rx="0" fill="#ffd93d"/><rect x="320" y="380" width="55" height="70" rx="0" fill="#ffffff"/><rect x="390" y="380" width="55" height="70" rx="0" fill="#ffd93d"/><rect x="320" y="510" width="55" height="70" rx="0" fill="#ffffff"/><rect x="390" y="510" width="55" height="70" rx="0" fill="#ffd93d"/><rect x="320" y="640" width="55" height="70" rx="0" fill="#ffffff"/><rect x="390" y="640" width="55" height="70" rx="0" fill="#ffd93d"/><rect x="565" y="290" width="55" height="70" rx="0" fill="#ffffff"/><rect x="635" y="290" width="55" height="70" rx="0" fill="#ffd93d"/><rect x="565" y="420" width="55" height="70" rx="0" fill="#ffffff"/><rect x="635" y="420" width="55" height="70" rx="0" fill="#ffd93d"/><rect x="565" y="550" width="55" height="70" rx="0" fill="#ffffff"/><rect x="635" y="550" width="55" height="70" rx="0" fill="#ffd93d"/><rect x="810" y="380" width="55" height="70" rx="0" fill="#ffffff"/><rect x="880" y="380" width="55" height="70" rx="0" fill="#ffd93d"/><rect x="810" y="510" width="55" height="70" rx="0" fill="#ffffff"/><rect x="880" y="510" width="55" height="70" rx="0" fill="#ffd93d"/><rect x="810" y="640" width="55" height="70" rx="0" fill="#ffffff"/><rect x="880" y="640" width="55" height="70" rx="0" fill="#ffd93d"/><rect x="0" y="800" width="1000" height="200" rx="0" fill="#4a5568"/><rect x="80" y="880" width="140" height="24" rx="0" fill="#ffd93d"/><rect x="430" y="880" width="140" height="24" rx="0" fill="#ffd93d"/><rect x="780" y="880" width="140" height="24" rx="0" fill="#ffd93d"/><rect x="80" y="520" width="560" height="250" rx="40" fill="#ee4b4b"/><rect x="620" y="440" width="280" height="330" rx="50" fill="#ee4b4b"/><rect x="660" y="480" width="170" height="120" rx="20" fill="#9bdcff"/><rect x="110" y="540" width="500" height="40" rx="14" fill="#ffffff"/><rect x="110" y="440" width="440" height="40" rx="12" fill="#e3e8ee"/><rect x="130" y="440" width="18" height="80" rx="4" fill="#9aa5b1"/><rect x="182" y="440" width="18" height="80" rx="4" fill="#9aa5b1"/><rect x="234" y="440" width="18" height="80" rx="4" fill="#9aa5b1"/><rect x="286" y="440" width="18" height="80" rx="4" fill="#9aa5b1"/><rect x="338" y="440" width="18" height="80" rx="4" fill="#9aa5b1"/><rect x="390" y="440" width="18" height="80" rx="4" fill="#9aa5b1"/><rect x="442" y="440" width="18" height="80" rx="4" fill="#9aa5b1"/><rect x="494" y="440" width="18" height="80" rx="4" fill="#9aa5b1"/><rect x="120" y="400" width="100" height="40" rx="14" fill="#ffd93d"/><ellipse cx="750" cy="405" rx="30" ry="30" fill="#3a86ff"/><ellipse cx="190" cy="780" rx="80" ry="80" fill="#2b2d42"/><ellipse cx="190" cy="780" rx="36" ry="36" fill="#e3e8ee"/><ellipse cx="560" cy="780" rx="80" ry="80" fill="#2b2d42"/><ellipse cx="560" cy="780" rx="36" ry="36" fill="#e3e8ee"/><ellipse cx="780" cy="780" rx="80" ry="80" fill="#2b2d42"/><ellipse cx="780" cy="780" rx="36" ry="36" fill="#e3e8ee"/><ellipse cx="120" cy="190" rx="80" ry="80" fill="#ffd93d"/><ellipse cx="580" cy="100" rx="49.5" ry="49.5" fill="#ffffff"/><ellipse cx="634" cy="73" rx="63" ry="63" fill="#ffffff"/><ellipse cx="701.5" cy="100" rx="52.2" ry="52.2" fill="#ffffff"/><rect x="575.5" y="100" width="130.5" height="52.2" rx="18" fill="#ffffff"/></svg>