<svg xmlns="http://www.w3.org/2000/svg" viewBox="0 0 1000 1000" shape-rendering="geometricPrecision"><rect width="1000" height="1000" fill="#9bdcff"/><ellipse cx="258" cy="545" rx="30.399714056868103" ry="30.399714056868103" fill="#e6f7ff"/><ellipse cx="844" cy="745" rx="32.165120139950886" ry="32.165120139950886" fill="#e6f7ff"/><ellipse cx="393" cy="821" rx="31.725563504733145" ry="31.725563504733145" fill="#e6f7ff"/><ellipse cx="626" cy="402" rx="33.717327694175765" ry="33.717327694175765" fill="#e6f7ff"/><ellipse cx="71" cy="724" rx="27.004759670700878" ry="27.004759670700878" fill="#e6f7ff"/><ellipse cx="185" cy="757" rx="28.71548513439484" ry="28.71548513439484" fill="#e6f7ff"/><ellipse cx="150" cy="800" rx="50" ry="50" fill="#ffffff"/><ellipse cx="250" cy="650" rx="36" ry="36" fill="#ffffff"/><ellipse cx="180" cy="300" rx="44" ry="44" fill="#ffffff"/><ellipse cx="820" cy="250" rx="55" ry="55" fill="#ffffff"/><polygon points="700,500 930,340 900,500 930,660" fill="#ee4b4b"/><polygon points="420,340 560,190 650,360" fill="#ee4b4b"/><polygon points="430,680 540,800 610,660" fill="#ee4b4b"/><ellipse cx="480" cy="510" rx="280" ry="185" fill="#ff9a3c"/><rect x="470" y="345" width="50" height="330" rx="22" fill="#ffd93d"/><rect x="580" y="360" width="50" height="300" rx="22" fill="#ffd93d"/><ellipse cx="300" cy="470" rx="62" ry="62" fill="#ffffff"/><ellipse cx="285" cy="475" rx="32" ry="32" fill="#2b2d42"/><path d="M170 565Q230 620 300 585" fill="#ee4b4b"/></svg>